<?xml version="1.0" standalone="no"?>
<!DOCTYPE svg PUBLIC "-//W3C//DTD SVG 20010904//EN"
 "http://www.w3.org/TR/2001/REC-SVG-20010904/DTD/svg10.dtd">
<svg version="1.0" xmlns="http://www.w3.org/2000/svg"
 width="468.000000pt" height="121.000000pt" viewBox="0 0 468.000000 121.000000"
 preserveAspectRatio="xMidYMid meet">

<g transform="translate(0.000000,121.000000) scale(0.100000,-0.100000)"
fill="#000000" stroke="none">
<path d="M910 785 l-24 -26 25 -25 25 -25 24 26 24 26 -25 25 -25 25 -24 -26z
m39 -41 c-9 -11 -15 -12 -25 -3 -11 9 -12 15 -3 25 9 11 15 12 25 3 11 -9 12
-15 3 -25z"/>
<path d="M1893 769 c3 -9 26 -48 51 -88 25 -39 46 -76 46 -81 0 -5 -21 -42
-46 -81 -25 -39 -43 -73 -40 -76 5 -5 39 46 153 226 65 104 71 132 7 36 -26
-39 -50 -74 -55 -79 -4 -5 -29 25 -55 65 -50 79 -71 105 -61 78z"/>
<path d="M2322 613 l-2 -173 95 0 c95 0 95 0 95 25 0 24 -2 25 -70 25 -65 0
-70 2 -70 21 0 12 8 28 18 36 16 12 15 13 -8 11 -22 -3 -25 -8 -25 -43 l0 -40
70 -5 c87 -7 65 -22 -26 -18 l-64 3 0 60 0 60 73 3 c64 3 72 5 72 22 0 17 -7
20 -55 20 l-55 0 0 60 0 60 60 0 c33 0 60 -4 60 -10 0 -5 -22 -10 -50 -10 -43
0 -50 -3 -50 -20 0 -11 5 -20 10 -20 6 0 9 6 8 13 -2 8 13 13 45 15 39 3 47 6
47 23 0 17 -7 19 -75 19 l-75 0 0 -70 0 -70 60 0 c33 0 60 -4 60 -10 0 -6 -30
-10 -70 -10 l-69 0 -4 98 c-2 61 -4 34 -5 -75z"/>
<path d="M1715 758 c-3 -7 -6 -80 -8 -163 l-3 -150 -2 153 c-1 93 -6 152 -12
152 -6 0 -10 -58 -10 -155 l0 -155 25 0 25 0 0 165 c0 152 -3 185 -15 153z"/>
<path d="M2702 618 c-1 -91 -6 -159 -12 -163 -6 -4 -10 47 -10 144 0 97 -4
151 -10 151 -7 0 -10 -53 -8 -152 l3 -153 80 0 c73 0 80 2 80 20 0 16 -8 21
-35 23 -19 2 -41 9 -49 15 -11 9 -13 7 -10 -8 3 -15 14 -21 42 -23 55 -5 45
-24 -10 -20 l-48 3 -5 160 -6 160 -2 -157z"/>
<path d="M1312 603 c-2 -157 -1 -163 18 -163 18 0 20 7 20 59 l0 59 55 4 c64
5 92 26 101 75 7 39 -11 89 -37 103 -10 6 -43 10 -73 10 l-56 0 0 -60 0 -60
39 0 c39 0 68 20 56 40 -10 16 -65 13 -59 -4 6 -17 -12 -31 -21 -16 -3 6 -3
19 0 30 5 15 15 20 45 20 50 0 70 -28 45 -66 -13 -21 -23 -24 -70 -24 l-54 0
-4 78 c-1 42 -4 4 -5 -85z m152 116 c20 -16 26 -29 26 -60 0 -57 -26 -79 -95
-79 l-55 0 0 -65 c0 -38 -4 -65 -10 -65 -7 0 -10 27 -8 73 l3 72 60 3 c70 4
85 13 85 58 0 43 -23 64 -71 64 -21 0 -39 5 -39 10 0 19 76 11 104 -11z"/>
<path d="M2982 602 l-2 -163 93 3 c84 3 92 5 92 23 0 18 -8 20 -68 23 -70 3
-94 19 -68 45 16 16 14 27 -5 27 -12 0 -14 -9 -12 -42 l3 -43 70 -5 c87 -7 65
-22 -26 -18 l-64 3 0 60 0 60 73 3 c63 3 72 5 72 22 0 16 -9 19 -57 22 l-58 3
0 55 0 55 63 3 c38 2 62 -1 62 -8 0 -5 -22 -10 -49 -10 -47 0 -72 -12 -52 -24
5 -4 12 -2 16 4 3 5 26 10 51 10 37 0 44 3 44 20 0 18 -7 20 -75 20 l-75 0 0
-70 0 -70 60 0 c33 0 60 -4 60 -10 0 -6 -30 -10 -70 -10 l-69 0 -4 88 c-2 51
-4 20 -5 -76z"/>
<path d="M3695 750 c-4 -6 30 -10 95 -10 132 0 125 -19 -8 -22 -53 -1 -78 -3
-54 -5 l42 -4 0 -135 c0 -135 0 -135 23 -132 21 3 22 7 23 115 1 61 5 116 8
122 4 6 0 11 -8 11 -14 0 -16 -18 -16 -121 0 -77 -4 -118 -10 -114 -6 4 -10
58 -10 131 l0 124 60 0 c52 0 60 2 60 19 0 10 -7 22 -16 25 -26 10 -182 7
-189 -4z"/>
<path d="M1954 725 c9 -14 23 -37 33 -51 10 -16 19 -21 23 -14 4 6 -6 25 -22
42 -15 16 -28 34 -28 39 0 5 -5 9 -11 9 -7 0 -5 -10 5 -25z"/>
<path d="M2098 698 c-132 -206 -159 -250 -155 -255 3 -2 22 21 42 53 l37 57
36 -56 c30 -47 42 -57 65 -57 20 0 26 4 21 13 -4 6 -23 35 -40 63 -18 29 -30
54 -27 58 4 3 1 6 -5 6 -19 0 -14 -20 19 -72 17 -27 29 -52 25 -55 -7 -8 -5
-10 -48 58 l-36 56 55 88 c30 48 52 89 49 92 -2 2 -20 -19 -38 -49z"/>
<path d="M3380 727 c-101 -67 -95 -214 11 -267 46 -24 90 -25 129 -5 32 17 35
22 21 44 -7 11 -15 11 -43 1 -88 -32 -169 52 -133 137 21 49 56 67 117 60 37
-5 48 -3 41 4 -6 6 -32 14 -57 16 -43 5 -48 3 -87 -36 -40 -39 -41 -43 -37
-91 4 -35 13 -59 28 -75 30 -32 89 -49 125 -35 32 12 35 12 35 0 0 -15 -68
-29 -99 -20 -47 13 -71 30 -91 63 -72 117 61 264 181 201 17 -8 33 -13 36 -10
3 2 -9 12 -26 20 -44 23 -111 20 -151 -7z"/>
<path d="M767 662 l-37 -38 33 -32 c18 -18 37 -32 43 -32 6 0 25 16 44 35 l34
35 -34 35 c-19 19 -37 35 -40 35 -3 0 -23 -17 -43 -38z m83 -34 c0 -4 -10 -18
-21 -29 l-21 -21 -26 26 -26 25 24 26 24 25 23 -22 c13 -12 23 -25 23 -30z"/>
<path d="M794 639 c-10 -17 13 -36 27 -22 12 12 4 33 -11 33 -5 0 -12 -5 -16
-11z"/>
<path d="M1044 639 c-10 -17 13 -36 27 -22 12 12 4 33 -11 33 -5 0 -12 -5 -16
-11z"/>
<path d="M855 570 c-27 -28 -45 -50 -39 -50 13 0 99 88 93 95 -3 2 -27 -18
-54 -45z"/>
<path d="M885 550 l-50 -50 50 -50 50 -50 50 50 50 50 -50 50 -50 50 -50 -50z
m95 -85 c-19 -19 -39 -35 -45 -35 -6 0 -26 16 -45 35 l-34 35 39 40 39 40 40
-40 40 -40 -34 -35z"/>
<path d="M910 525 l-24 -26 25 -25 25 -25 24 26 24 26 -25 25 -25 25 -24 -26z
m48 -22 c5 -17 -26 -29 -40 -15 -6 6 -7 15 -3 22 9 14 37 9 43 -7z"/>
</g>
</svg>
